<?xml version="1.0" standalone="no"?><!DOCTYPE svg PUBLIC "-//W3C//DTD SVG 1.1//EN" "http://www.w3.org/Graphics/SVG/1.1/DTD/svg11.dtd"><svg t="1724398365449" class="icon" viewBox="0 0 1024 1024" version="1.1" xmlns="http://www.w3.org/2000/svg" p-id="9860" xmlns:xlink="http://www.w3.org/1999/xlink" width="200" height="200"><path d="M0 0h1024v1024H0z" fill="#FFFFFF" p-id="9861"></path><path d="M362.752 476.864h298.496v67.328H362.752z" fill="#FF8F00" p-id="9862"></path><path d="M810.816 232.64H613.312l47.68 67.456 144 44.16a62.272 62.272 0 0 1 43.456 59.776V619.968a62.272 62.272 0 0 1-43.52 59.84l-144 44.096-47.616 67.456h197.504A149.184 149.184 0 0 0 960 642.176V381.824a149.184 149.184 0 0 0-149.184-149.12z m-597.632 0h197.504L363.008 300.16l-144 44.16a62.272 62.272 0 0 0-43.456 59.776V619.968a62.272 62.272 0 0 0 43.52 59.84l144 44.096 47.616 67.456H213.184A149.184 149.184 0 0 1 64 642.176V381.824a149.184 149.184 0 0 1 149.184-149.12z" fill="#FF8F00" p-id="9863"></path></svg>