<svg t="1721235050463" class="icon" viewBox="0 0 1024 1024" version="1.1" xmlns="http://www.w3.org/2000/svg" p-id="9813" width="200" height="200"><path d="M846.677333 164.215467c0-40.96-20.48-61.44-58.026666-58.026667h-692.906667c-40.96 0-61.44 20.48-61.44 58.026667v703.146666c-3.413333 37.546667 20.48 58.026667 61.44 58.026667h836.266667c40.96 0 58.026667-20.48 58.026666-58.026667v-498.346666c0-37.546667-17.066667-61.44-58.026666-58.026667h-85.333334v68.266667h75.093334v477.866666h-819.2v-682.666666h675.84v682.666666h68.266666v-692.906666" p-id="9814"></path><path d="M358.570667 461.175467h-157.013334c-17.066667 0-27.306667 6.826667-27.306666 23.893333v215.04c0 13.653333 10.24 23.893333 27.306666 23.893333h157.013334c17.066667 0 23.893333-10.24 23.893333-23.893333v-215.04c0-17.066667-6.826667-23.893333-23.893333-23.893333M716.970667 317.815467c-6.826667-6.826667-17.066667-10.24-23.893334-10.24h-505.173333c-6.826667 0-17.066667 3.413333-20.48 10.24-6.826667 6.826667-10.24 13.653333-10.24 23.893333 0 6.826667 3.413333 17.066667 10.24 23.893333 3.413333 6.826667 13.653333 10.24 20.48 10.24h505.173333c6.826667 0 17.066667-3.413333 23.893334-10.24 6.826667-6.826667 10.24-17.066667 10.24-23.893333 0-10.24-3.413333-17.066667-10.24-23.893333M457.557333 450.935467c-10.24 0-17.066667 3.413333-23.893333 10.24-6.826667 6.826667-10.24 13.653333-10.24 23.893333 0 6.826667 3.413333 17.066667 10.24 23.893333 6.826667 6.826667 13.653333 10.24 23.893333 10.24h228.693334c6.826667 0 17.066667-3.413333 23.893333-10.24 6.826667-6.826667 10.24-17.066667 10.24-23.893333 0-10.24-3.413333-17.066667-10.24-23.893333-6.826667-6.826667-17.066667-10.24-23.893333-10.24h-228.693334M710.144 570.402133c-6.826667-6.826667-17.066667-10.24-23.893333-10.24h-228.693334c-10.24 0-17.066667 3.413333-23.893333 10.24-6.826667 6.826667-10.24 17.066667-10.24 23.893334 0 10.24 3.413333 17.066667 10.24 23.893333 6.826667 6.826667 13.653333 10.24 23.893333 10.24h228.693334c6.826667 0 17.066667-3.413333 23.893333-10.24 6.826667-6.826667 10.24-13.653333 10.24-23.893333 0-6.826667-3.413333-17.066667-10.24-23.893334M710.144 676.215467c-6.826667-6.826667-17.066667-10.24-23.893333-10.24h-228.693334c-10.24 0-17.066667 3.413333-23.893333 10.24-6.826667 6.826667-10.24 13.653333-10.24 23.893333 0 6.826667 3.413333 17.066667 10.24 23.893333 6.826667 6.826667 13.653333 10.24 23.893333 10.24h228.693334c6.826667 0 17.066667-3.413333 23.893333-10.24 6.826667-6.826667 10.24-17.066667 10.24-23.893333 0-10.24-3.413333-17.066667-10.24-23.893333" p-id="9815"></path></svg>