<svg t="1721241320207" class="icon" viewBox="0 0 1024 1024" version="1.1" xmlns="http://www.w3.org/2000/svg"
     p-id="12958" width="200" height="200">
    <path d="M377.344 658.944C425.984 588.8 437.76 522.24 437.76 522.24s39.424 46.08 24.576 122.368c67.584-72.192 79.36-188.928 70.144-232.448 152.576 101.888 219.136 325.12 130.56 488.448 468.992-256 115.2-635.904 54.784-677.376 20.992 44.032 24.576 116.224-18.432 150.528-69.12-254.976-242.688-305.152-242.688-305.152C477.696 199.68 382.976 342.016 292.352 450.048 288.768 397.824 286.208 363.52 256 310.272c-6.656 96.256-82.432 172.032-104.448 267.776-27.136 130.56 22.016 223.232 207.36 325.12-58.368-116.224-27.136-182.784 18.432-244.224z"
          fill="" p-id="12959"></path>
</svg>