<svg t="1721242564409" class="icon" viewBox="0 0 1024 1024" version="1.1" xmlns="http://www.w3.org/2000/svg"
     p-id="15998" width="200" height="200">
    <path d="M608 460.8h236.8c12.8 0 25.6-12.8 25.6-19.2 0-12.8-12.8-25.6-25.6-25.6H608c-12.8 0-25.6 12.8-25.6 25.6 6.4 6.4 12.8 19.2 25.6 19.2z m0 102.4h236.8c12.8 0 25.6-12.8 25.6-25.6s-12.8-25.6-25.6-25.6H608c-12.8 0-25.6 12.8-25.6 25.6 6.4 12.8 12.8 25.6 25.6 25.6z m0-204.8h236.8c12.8 0 25.6-12.8 25.6-25.6s-12.8-25.6-25.6-25.6H608c-12.8 0-25.6 12.8-25.6 25.6 6.4 19.2 12.8 25.6 25.6 25.6zM966.4 128H57.6c-19.2 0-38.4 19.2-38.4 38.4v691.2c0 19.2 19.2 38.4 38.4 38.4h153.6c19.2 0 38.4-19.2 38.4-38.4v-64h64v64c0 19.2 19.2 38.4 38.4 38.4h332.8c19.2 0 38.4-19.2 38.4-38.4v-64h64v64c0 19.2 19.2 38.4 38.4 38.4h153.6c19.2 0 38.4-19.2 38.4-38.4V166.4c-12.8-19.2-32-38.4-51.2-38.4z m-38.4 691.2h-76.8v-64c0-19.2-19.2-38.4-38.4-38.4h-140.8c-19.2 0-38.4 19.2-38.4 38.4v64H384v-64c0-19.2-19.2-38.4-38.4-38.4H211.2c-19.2 0-38.4 19.2-38.4 38.4v64H96V204.8h832v614.4zM172.8 665.6h307.2c12.8 0 19.2-12.8 19.2-19.2v-38.4c0-12.8 0-32-6.4-44.8 0-12.8-12.8-25.6-19.2-38.4-12.8-12.8-25.6-19.2-44.8-25.6h-6.4l6.4-6.4c25.6-25.6 44.8-64 44.8-102.4 0-38.4-12.8-76.8-44.8-102.4-25.6-25.6-64-38.4-102.4-38.4s-70.4 19.2-96 44.8c-25.6 25.6-44.8 57.6-44.8 96s12.8 76.8 38.4 102.4l6.4 6.4c-12.8 6.4-32 12.8-44.8 25.6-6.4 12.8-19.2 25.6-25.6 38.4-6.4 12.8-6.4 32-6.4 44.8v32c0 19.2 6.4 25.6 19.2 25.6z m89.6-339.2c19.2-19.2 44.8-25.6 70.4-25.6 25.6 0 51.2 12.8 70.4 25.6 19.2 19.2 25.6 38.4 25.6 70.4 0 25.6-12.8 51.2-25.6 70.4-38.4 38.4-96 38.4-134.4 0-25.6-25.6-38.4-44.8-38.4-76.8 0-25.6 12.8-51.2 32-64z m-64 281.6c0-12.8 0-19.2 6.4-25.6 6.4-6.4 12.8-19.2 19.2-25.6 12.8-12.8 32-19.2 51.2-19.2H384c12.8 0 19.2 0 32 6.4 6.4 6.4 19.2 12.8 25.6 19.2 6.4 0 12.8 6.4 12.8 19.2 6.4 6.4 6.4 19.2 6.4 25.6v12.8H198.4v-12.8z"
          fill="" p-id="15999"></path>
</svg>