<?xml version="1.0" standalone="no"?><!DOCTYPE svg PUBLIC "-//W3C//DTD SVG 1.1//EN" "http://www.w3.org/Graphics/SVG/1.1/DTD/svg11.dtd"><svg t="1724398458140" class="icon" viewBox="0 0 1313 1024" version="1.1" xmlns="http://www.w3.org/2000/svg" p-id="10102" xmlns:xlink="http://www.w3.org/1999/xlink" width="256.4453125" height="200"><path d="M729.644281 690.235461c136.426078 0 246.989007-106.984923 246.989007-238.970213 0-109.004847-75.452792-200.901242-178.585649-229.596344C743.408186 118.835483 633.616685 48.574606 506.96034 48.574606c-157.944867 0-289.782976 109.243381-320.954769 254.698215C95.687559 325.963978 29.207696 402.441958 29.207696 493.30809c0 108.756163 95.16989 196.927371 212.56402 196.927371h487.872565z" fill="#ABABCF" p-id="10103"></path><path d="M234.996342 293.777148s46.986073-187.984893 258.260996-187.984894c211.274922 0 265.178474 118.246761 265.178474 118.246761l39.616903-2.370111S702.233201 48.574606 506.965415 48.574606 197.830754 251.942389 186.005571 303.267746l48.990771-9.490598z" fill="#FCFCFC" opacity=".12" p-id="10104"></path><path d="M691.3114 325.903076a20.300744 20.300744 0 0 1-20.300744-20.300745c0-32.389838 10.414282-58.141332 30.95356-76.528731 37.820287-33.856567 95.880416-27.852621 98.32158-27.583636a20.300744 20.300744 0 0 1 17.940783 22.412021 20.270293 20.270293 0 0 1-22.356194 17.950934c-0.81203-0.076128-42.910699-4.075374-66.94678 17.580444-11.647552 10.495485-17.306385 25.599239-17.306385 46.168968a20.310895 20.310895 0 0 1-20.30582 20.300745z" fill="#6E6E96" p-id="10105"></path><path d="M186.005571 303.272821s53.842649-19.245106 89.140569 17.18458" fill="#AAE3FC" p-id="10106"></path><path d="M275.14614 340.758146a20.249993 20.249993 0 0 1-14.58101-6.171427c-25.898675-26.731005-67.317269-12.347928-67.728359-12.195672a20.300744 20.300744 0 0 1-13.667476-38.231377c2.699999-0.969361 66.657494-23.122548 110.552779 22.173488a20.295669 20.295669 0 0 1-14.575934 34.424988z" fill="#6E6E96" p-id="10107"></path><path d="M768.007613 191.628877c6.851501 1.90827 13.545672 4.146427 20.107887 6.648494a325.629016 325.629016 0 0 0-83.59339-87.67384 295.624516 295.624516 0 0 1 63.485503 81.025346zM225.175857 211.807817a315.585222 315.585222 0 0 0-25.670291 56.750731 218.537514 218.537514 0 0 1 8.05432-2.212781 286.763241 286.763241 0 0 1 17.615971-54.53795z m645.502771 40.829872c37.749234 39.078933 60.866707 91.530981 60.866707 149.235848 0 120.860482-101.249963 218.826799-226.165519 218.826799H258.621334c-107.502592 0-194.648613-80.736061-194.648613-180.326438 0-24.447171 5.293419-47.752426 14.814468-69.01238C50.17329 404.898348 33.069913 447.240625 33.069913 493.30809c0 108.756163 95.16989 196.927371 212.564019 196.927371h487.872566c136.415927 0 246.978857-106.984923 246.978856-238.970213 0-82.847338-43.600924-155.782838-109.806726-198.627559z" fill="#6E6E96" opacity=".15" p-id="10108"></path><path d="M86.156359 524.023116S46.427803 441.871078 128.84375 387.79497c82.410872-54.081183 142.932466 39.916339 175.124371 7.719358 32.191905-32.191905-17.215031-141.516489-136.08604-86.851659C49.005997 363.332573 51.198477 459.375395 86.156359 524.023116zM677.39524 284.783918s-10.297553 84.983991 48.94002 84.983991 10.297553-84.983991 56.659377-84.983991c46.35675 0 155.584905 36.26728 144.749383 157.208965 0 0 35.348671-217.943717-169.303133-217.943717l-81.045647 60.734752z" fill="#6E6E96" opacity=".15" p-id="10109"></path><path d="M729.644281 710.536205H241.771716c-128.402208 0-232.864764-97.448648-232.864764-217.228115 0-94.07365 65.211066-177.306702 160.071369-206.367218C207.194473 136.324574 347.335587 28.273862 506.96034 28.273862c127.422698 0 243.436377 67.327419 304.87658 176.30689 109.421012 34.272732 185.097112 134.512733 185.097112 246.689571 0 142.957842-119.906347 259.265882-267.289751 259.265882zM506.96034 68.875351c-144.835661 0-271.471705 100.36688-301.105716 238.650476l-2.644172 12.353003-12.256575 3.080638C107.670073 343.88446 49.50844 413.937254 49.50844 493.30809c0 97.387746 86.252788 176.626627 192.263276 176.626626h487.86749c124.996759 0 226.688263-98.093197 226.688262-218.669468 0-96.844701-67.327419-183.219294-163.725503-210.041652l-8.394358-2.334586-4.0906-7.693982C726.918906 131.071756 622.253343 68.875351 506.96034 68.875351z" fill="#6E6E96" p-id="10110"></path><path d="M1045.183827 999.968994c136.426078 0 246.989007-106.979848 246.989007-238.975288 0-109.004847-75.447717-200.901242-178.585649-229.586194C1058.952807 428.574091 949.166381 358.308139 822.499886 358.308139c-157.934716 0-289.777901 109.243381-320.944619 254.698215-90.323087 22.701307-156.80295 99.174212-156.80295 190.035268 0 108.756163 95.16989 196.932446 212.56402 196.932447h487.86749z" fill="#AAE3FC" p-id="10111"></path><path d="M550.546038 603.505606s46.991148-187.979818 258.266071-187.979819c211.269847 0 265.173399 118.246761 265.173399 118.246761l39.616903-2.370112s-95.819514-173.099373-291.087299-173.099372c-195.26271 0-309.119435 203.367782-320.944619 254.698215l48.975545-9.495673z" fill="#FCFCFC" opacity=".25" p-id="10112"></path><path d="M1113.597336 531.402436s-106.731164-11.835334-106.731164 83.928353" fill="#AAE3FC" p-id="10113"></path><path d="M1006.866172 635.631534a20.300744 20.300744 0 0 1-20.300745-20.300745c0-32.394913 10.414282-58.141332 30.95356-76.523656 37.815212-33.856567 95.870266-27.852621 98.316506-27.583636a20.300744 20.300744 0 0 1 17.940782 22.412021c-1.228195 11.124808-11.160334 19.234955-22.351119 17.945858-0.487218-0.040601-42.82442-4.161653-66.94678 17.580445-11.647552 10.495485-17.306385 25.599239-17.306385 46.168968a20.310895 20.310895 0 0 1-20.305819 20.300745z" fill="#6E6E96" p-id="10114"></path><path d="M501.560342 613.001279s53.842649-19.245106 89.140569 17.189655" fill="#AAE3FC" p-id="10115"></path><path d="M590.705986 650.491678a20.249993 20.249993 0 0 1-14.586085-6.176501c-25.548487-26.365592-66.109374-12.753943-67.824787-12.160146a20.361647 20.361647 0 0 1-25.837772-12.434206 20.260143 20.260143 0 0 1 12.266724-25.832697c2.699999-0.964285 66.657494-23.132698 110.552779 22.178563a20.300744 20.300744 0 0 1-14.570859 34.424987z" fill="#6E6E96" p-id="10116"></path><path d="M1083.562384 501.357335c6.856576 1.903195 13.540597 4.141352 20.102812 6.648494a325.481835 325.481835 0 0 0-83.588315-87.678916c25.675367 23.092097 47.255058 50.477801 63.485503 81.030422z m-542.836831 20.184015a315.910034 315.910034 0 0 0-25.675366 56.745656 214.045974 214.045974 0 0 1 8.05432-2.207706 287.615872 287.615872 0 0 1 17.621046-54.53795z m645.492621 40.824797c37.749234 39.078933 60.871782 91.530981 60.871782 149.240923 0 120.850332-101.255038 218.821724-226.165519 218.821724h-446.753407c-107.497517 0-194.648613-80.741136-194.648613-180.321363 0-24.452247 5.293419-47.752426 14.814468-69.017455-28.613899 33.526679-45.717276 75.874032-45.717276 121.941496 0 108.756163 95.16989 196.927371 212.56402 196.927371h487.872565c136.415927 0 246.989007-106.974773 246.989007-238.970213 0-82.842263-43.621225-155.777762-109.827027-198.622483z" fill="#6E6E96" opacity=".15" p-id="10117"></path><path d="M401.706056 833.756649s-39.728557-82.157113 42.68739-136.233221c82.410872-54.076108 142.932466 39.916339 175.124372 7.719358 32.191905-32.191905-17.215031-141.511414-136.086041-86.85166-118.876084 54.669905-116.683604 150.712727-81.725721 215.365523z" fill="#6E6E96" opacity=".15" p-id="10118"></path><path d="M992.939861 594.517451s-10.297553 84.978916 48.94002 84.978916 10.307703-84.978916 56.654302-84.978916c46.35675 0 155.58998 36.26728 144.754458 157.208965 0 0 35.348671-217.943717-169.303133-217.943717l-81.045647 60.734752z" fill="#6E6E96" opacity=".15" p-id="10119"></path><path d="M1045.183827 1020.269738h-487.86749c-128.402208 0-232.864764-97.448648-232.864764-217.233191 0-94.068574 65.216141-177.296551 160.076445-206.357067C522.744169 446.058107 662.880208 338.007395 822.499886 338.007395c127.427773 0 243.441452 67.327419 304.871505 176.311965 109.426088 34.262581 185.102188 134.492432 185.102187 246.679421 0 142.962917-119.906347 259.270957-267.289751 259.270957zM822.499886 378.608884c-144.830586 0-271.461554 100.36688-301.095566 238.645401l-2.644172 12.358078-12.256575 3.075563c-83.283804 20.930068-141.450512 90.982861-141.450512 170.348621 0 97.392821 86.247713 176.631702 192.263276 176.631702h487.86749c124.996759 0 226.688263-98.098272 226.688262-218.674543 0-96.849776-67.327419-183.219294-163.725503-210.031502l-8.394358-2.334586-4.0906-7.699057C1042.463527 440.810364 937.797964 378.608884 822.499886 378.608884z" fill="#6E6E96" p-id="10120"></path></svg>