<svg t="1721236766651" class="icon" viewBox="0 0 1026 1024" version="1.1" xmlns="http://www.w3.org/2000/svg"
     p-id="11893" width="200" height="200">
    <path d="M433.92 628.48a42.24 42.24 0 0 1-29.44-10.88 232.96 232.96 0 0 1 0-326.4l224-224a232.96 232.96 0 0 1 164.48-64 238.72 238.72 0 0 1 167.04 64 232.96 232.96 0 0 1 0 326.4l-128 128a37.76 37.76 0 0 1-56.32 0 39.04 39.04 0 0 1 0-56.32l128-128a150.4 150.4 0 1 0-213.12-213.12l-226.56 224a148.48 148.48 0 0 0 0 212.48 39.68 39.68 0 0 1 0 56.96 54.4 54.4 0 0 1-30.08 10.88z m-202.24 391.04A230.4 230.4 0 0 1 0 789.76a240 240 0 0 1 67.2-164.48L192 504.32a39.68 39.68 0 0 1 56.96 0 39.04 39.04 0 0 1 0 56.32L128 682.24a146.56 146.56 0 0 0-42.88 104.96 149.76 149.76 0 0 0 256 105.6l224-224a146.56 146.56 0 0 0 42.88-104.96 149.12 149.12 0 0 0-42.88-105.6 37.76 37.76 0 0 1 0-56.32 39.04 39.04 0 0 1 56.32 0 232.96 232.96 0 0 1 67.2 164.48 238.72 238.72 0 0 1-67.2 164.48l-224 224a239.36 239.36 0 0 1-165.76 64.64z"
          p-id="11894"></path>
</svg>