<?xml version="1.0" standalone="no"?><!DOCTYPE svg PUBLIC "-//W3C//DTD SVG 1.1//EN" "http://www.w3.org/Graphics/SVG/1.1/DTD/svg11.dtd"><svg t="1724398460686" class="icon" viewBox="0 0 1024 1024" version="1.1" xmlns="http://www.w3.org/2000/svg" p-id="10287" xmlns:xlink="http://www.w3.org/1999/xlink" width="200" height="200"><path d="M325.566932 252.068473v682.045216c0 22.462358 11.477028 47.403689 31.132616 54.377592 37.495995 11.624537 88.247321 13.898636 151.172246 13.898635s118.408835-2.274099 151.164051-13.898635c31.194078-6.965708 35.242383-47.616758 35.242383-54.377592V252.068473H325.566932z" fill="#F5B3B3" p-id="10288"></path><path d="M327.963955 252.068473h63.158481v731.825441H327.963955z" fill="#FFFFFF" opacity=".15" p-id="10289"></path><path d="M507.871794 1018.779817c-65.321948 0-116.855892-2.487167-156.027754-14.632084l-0.626914-0.208971c-28.887199-10.247785-42.044192-43.379969-42.044192-69.825073V235.678572h401.495195v698.435117c0 16.447265-8.485871 60.794238-47.043112 70.136481-36.832204 12.759537-96.593878 14.529647-155.753223 14.529647z m-145.952063-45.830259c35.205506 10.829627 83.826145 13.050458 145.95616 13.050458 53.988332 0 113.520547-1.540651 145.68163-12.952119l1.909423-0.553159c20.753711-4.634244 22.429579-38.049154 22.429579-38.381049V268.458373H341.956832v665.655316c0 17.373294 8.932496 34.697419 19.962899 38.835869z" fill="#6E6E96" p-id="10290"></path><path d="M615.061742 264.360898v682.045216c0 6.756736-4.04011 47.407787-35.246481 54.377592-26.383642 9.362731-67.534584 12.657101-115.434068 13.579033 11.304934 0.225361 23.06059 0.311408 35.291553 0.311408 62.924925 0 118.408835-2.274099 151.168149-13.898636 31.194078-6.965708 35.242383-47.616758 35.242383-54.377592V264.360898H615.061742z" fill="#6E6E96" opacity=".15" p-id="10291"></path><path d="M693.307127 238.755776c0-9.497947-11.5221-28.252091-31.243248-35.566084-32.865848-12.194086-88.538242-10.27237-151.672138-10.27237-63.137994 0-118.802193-1.921716-151.672138 10.27237-19.721148 7.318091-31.23915 26.072234-31.23915 35.566084v9.563507c0 9.49385 11.518002 28.256188 31.23915 35.570181 32.869945 12.194086 88.538242 10.280565 151.672138 10.280565 63.125701 0 118.798095 1.917618 151.672138-10.280565 19.721148-7.313993 31.243248-26.080429 31.243248-35.570181v-9.563507z" fill="#EBB5B5" p-id="10292"></path><path d="M554.189652 310.670561c-6.91244 0-13.97239-0.024585-21.163459-0.053267-14.820567-0.057365-30.419655-0.057365-45.24432 0-7.182874 0.024585-14.238726 0.053267-21.138874 0.053267-43.666792 0-85.211092-0.872762-113.622984-11.411468-25.080645-9.305366-41.929463-33.853339-41.929462-50.93981v-9.563507c0-17.012717 16.029323-41.323036 41.925365-50.931615 28.395502-10.534608 69.874243-11.407371 113.463182-11.407371 6.920635 0 14.001072 0.024585 21.212629 0.053267 14.877932 0.057365 30.522092 0.057365 45.395927 0 7.207459-0.028682 14.283798-0.053267 21.212628-0.053267 43.593037 0 85.075875 0.872762 113.463183 11.407371 25.896043 9.604482 41.929463 33.914801 41.929462 50.931615v9.563507c0 17.086471-16.848818 41.634444-41.93356 50.93981-28.403697 10.538706-69.92751 11.411468-113.569717 11.411468z m-43.797911-32.890432c7.707351 0 15.299972 0.028682 22.761474 0.057364 7.150094 0.028682 14.169069 0.053267 21.040535 0.053268 38.926013 0 78.876396-0.725253 102.170541-9.366828 13.066848-4.847313 20.098115-16.79555 20.569325-20.516058l-0.012292-9.252099c-0.450722-3.413197-7.48199-15.353239-20.552935-20.200552-23.281853-8.637477-63.187163-9.358633-102.064007-9.358633-6.887856 0-13.919123 0.024585-21.085607 0.053267-14.955784 0.057365-30.685991 0.057365-45.641775 0-7.170581-0.028682-14.205946-0.053267-21.089705-0.053267-38.876844 0-78.782154 0.721156-102.064007 9.358633-13.062751 4.851411-20.094018 16.791453-20.565227 20.51196l0.012292 9.252099c0.45482 3.413197 7.48199 15.357337 20.548838 20.20465 23.302341 8.641575 63.277308 9.366828 102.223808 9.366828 6.859173 0 13.874051-0.028682 21.01595-0.053268 7.44921-0.028682 15.037734-0.057365 22.732792-0.057364z" fill="#6E6E96" p-id="10293"></path><path d="M404.84488 28.223408h211.097819v207.033124H404.84488z" fill="#FFF4D4" p-id="10294"></path><path d="M615.942699 251.646433H404.84488a16.3899 16.3899 0 0 1-16.3899-16.389901V28.223408a16.3899 16.3899 0 0 1 16.3899-16.3899h211.097819a16.3899 16.3899 0 0 1 16.389901 16.3899v207.033124a16.3899 16.3899 0 0 1-16.389901 16.389901z m-194.707918-32.779801h178.318018V44.613309H421.234781v174.253323z" fill="#6E6E96" p-id="10295"></path><path d="M444.643656 123.583946h33.263303v31.632508h-33.263303zM539.430547 123.583946h33.263303v31.632508h-33.263303z" fill="#6E6E96" p-id="10296"></path><path d="M616.389324 802.834684a16.3899 16.3899 0 0 1-16.3899-16.3899v-300.488336a16.3899 16.3899 0 0 1 32.779801 0v300.488336a16.3899 16.3899 0 0 1-16.389901 16.3899z" fill="#6E6E96" opacity=".48" p-id="10297"></path><path d="M404.84488 194.556312h211.097819v40.70022H404.84488z" fill="#6E6E96" opacity=".15" p-id="10298"></path></svg>