<?xml version="1.0" standalone="no"?><!DOCTYPE svg PUBLIC "-//W3C//DTD SVG 1.1//EN" "http://www.w3.org/Graphics/SVG/1.1/DTD/svg11.dtd"><svg t="1724397822139" class="icon" viewBox="0 0 1024 1024" version="1.1" xmlns="http://www.w3.org/2000/svg" p-id="3815" xmlns:xlink="http://www.w3.org/1999/xlink" width="200" height="200"><path d="M512 85.333333C276.736 85.333333 85.333333 276.736 85.333333 512s191.402667 426.666667 426.666667 426.666667c235.221333 0 426.666667-191.402667 426.666667-426.666667S747.221333 85.333333 512 85.333333z" fill="#303133" p-id="3816"></path><path d="M512 125.994667a386.005333 386.005333 0 1 1 0 772.010666 386.005333 386.005333 0 0 1 0-772.010666z" fill="#85EA2D" p-id="3817"></path><path d="M382.933333 293.973333a238.506667 238.506667 0 0 0-15.061333 0.170667c-34.944 2.005333-55.893333 18.389333-61.653333 52.352-4.096 23.637333-3.413333 47.914667-5.12 71.68a245.76 245.76 0 0 1-4.053334 36.949333c-4.778667 21.632-14.122667 28.373333-36.138666 29.482667-2.901333 0.384-5.802667 0.853333-8.661334 1.493333v52.053334c40.021333 1.92 45.44 16.042667 48.682667 57.898666 1.194667 15.274667-0.426667 30.506667 0.554667 45.781334 0.64 14.421333 2.56 28.714667 5.546666 42.666666 9.216 38.186667 46.464 50.986667 91.562667 43.306667v-45.653333c-7.253333 0-13.653333 0.213333-19.84 0-15.317333-0.426667-21.034667-4.266667-22.485333-18.986667-2.005333-19.029333-1.493333-38.4-2.688-57.6-2.261333-35.626667-6.186667-70.698667-40.96-93.354667 17.877333-13.141333 30.848-28.885333 34.944-49.706666 2.944-14.592 4.736-29.184 5.888-43.946667 0.981333-14.805333-0.810667-29.866667 0.512-44.458667 2.133333-23.68 3.626667-33.322667 32-32.384 4.266667 0 8.362667-0.597333 13.098666-0.938666V294.186667c-5.674667 0-11.008-0.128-16.128-0.213334z m269.994667 0.341334a151.04 151.04 0 0 0-28.928 2.133333v45.269333c8.704 0 15.445333 0 22.186667 0.170667 11.648 0.170667 20.48 4.650667 21.674666 17.578667 1.109333 11.818667 1.066667 23.765333 2.261334 35.754666 2.304 23.808 3.584 47.914667 7.68 71.381334 3.669333 19.328 16.938667 33.749333 33.493333 45.610666-29.056 19.498667-37.589333 47.36-39.04 78.762667-0.853333 21.461333-1.322667 43.093333-2.474667 64.768-0.981333 19.712-7.893333 26.112-27.733333 26.581333-5.546667 0.170667-11.008 0.64-17.194667 1.024v46.378667c11.605333 0 22.272 0.682667 32.938667 0 33.152-1.962667 53.162667-18.005333 59.733333-50.176 2.773333-17.706667 4.437333-35.584 4.906667-53.504 1.152-16.384 1.024-32.938667 2.645333-49.194667 2.474667-25.429333 14.122667-35.925333 39.552-37.546666a34.56 34.56 0 0 0 7.082667-1.706667v-51.968c-4.266667-0.512-7.253333-0.981333-10.368-1.152-19.072-0.853333-28.586667-7.253333-33.28-25.258667a182.954667 182.954667 0 0 1-5.418667-35.285333c-1.322667-21.973333-1.194667-44.117333-2.645333-66.133333-2.858667-42.410667-28.245333-62.336-67.114667-63.530667z m-244.992 187.733333a29.994667 29.994667 0 0 0-2.986667 59.861333h1.962667a29.525333 29.525333 0 0 0 31.189333-27.733333v-1.664a30.037333 30.037333 0 0 0-29.482666-30.506667H407.893333z m103.509333 0a28.714667 28.714667 0 0 0-29.525333 30.464c0 17.92 12.16 29.397333 30.549333 29.397333 18.005333 0 29.354667-11.818667 29.354667-30.336-0.170667-17.92-12.16-29.738667-30.378667-29.568z m105.344 0a30.634667 30.634667 0 0 0-31.146666 29.653333c0 16.725333 13.44 30.208 30.165333 30.208h0.341333c15.104 2.602667 30.293333-11.989333 31.317334-29.525333 0.853333-16.213333-13.952-30.378667-30.72-30.378667z" fill="#303133" p-id="3818"></path></svg>